Coordinates
version=1
nRows=10
nColumns=46
inDegrees=yes

Units are S.I. units (second, meters, Newtons, ...)
Angles are in degrees.

endheader
time	pelvis_tilt	pelvis_list	pelvis_rotation	pelvis_tx	pelvis_ty	pelvis_tz	bb_angle	bb_tx	bb_ty	bb_tz	hip_flexion_r	hip_adduction_r	hip_rotation_r	knee_angle_r	knee_angle_r_beta	ankle_angle_r	subtalar_angle_r	mtp_angle_r	crank_angle_r	hip_flexion_l	hip_adduction_l	hip_rotation_l	knee_angle_l	knee_angle_l_beta	ankle_angle_l	subtalar_angle_l	mtp_angle_l	crank_angle_l	lumbar_extension	lumbar_bending	lumbar_rotation	arm_flex_r	arm_add_r	arm_rot_r	elbow_flex_r	pro_sup_r	wrist_flex_r	wrist_dev_r	arm_flex_l	arm_add_l	arm_rot_l	elbow_flex_l	pro_sup_l	wrist_flex_l	wrist_dev_l
      7.50000000	    -18.27703068	      7.01188023	      6.33787934	      0.14851143	      1.14649726	     -0.22187083	      0.00000000	      0.50000000	      0.00000000	      0.25000000	     53.37596700	    -11.12110687	      7.01003115	     70.95438705	      1.23838767	     -8.74458391	    -13.32857056	      0.00000000	      0.00000000	     69.22164894	      4.80273568	      0.77837597	     60.92819311	      1.06339758	      9.42833330	     -6.46805294	      0.00000000	      0.00000000	    -60.44885924	     -4.12925499	     -6.01113318	     89.49273141	    -16.08902961	     32.65569265	     43.89490539	     31.60276041	      0.00000000	      0.00000000	     89.75577943	     -3.15886296	     25.39787315	     50.60032659	     24.62704208	      0.00000000	      0.00000000
      7.50500000	    -18.16198561	      6.70384961	      6.19237498	      0.14956743	      1.14501310	     -0.22311891	      0.00000000	      0.50000000	      0.00000000	      0.25000000	     54.58815227	    -10.92693701	      7.12898785	     73.79585625	      1.28798067	     -7.80262277	    -12.32421551	      0.00000000	      0.00000000	     67.85513060	      4.71779350	      1.03262236	     58.61224014	      1.02297657	      8.18312531	     -6.87220654	      0.00000000	      0.00000000	    -60.53445530	     -3.87629278	     -5.52753730	     89.46440810	    -16.57510041	     32.62207926	     44.62139189	     31.78468229	      0.00000000	      0.00000000	     89.74936378	     -3.13321661	     25.70350748	     50.69736336	     24.63394565	      0.00000000	      0.00000000
      7.51000000	    -17.96493935	      6.13209801	      5.94630613	      0.15079947	      1.14361847	     -0.22421001	      0.00000000	      0.50000000	      0.00000000	      0.25000000	     55.65052911	    -10.42534884	      7.09029968	     76.45781853	      1.33444067	     -7.11444376	    -11.72120274	      0.00000000	      0.00000000	     66.43370173	      4.35347542	      1.40868058	     56.42151199	      0.98474115	      7.01936209	     -7.01053505	      0.00000000	      0.00000000	    -60.63108895	     -3.54934475	     -4.77809626	     89.43455448	    -17.13949079	     32.92720641	     45.25424767	     32.01084078	      0.00000000	      0.00000000	     89.74204049	     -3.16041349	     25.99349792	     50.72143008	     24.63681169	      0.00000000	      0.00000000
      7.51500000	    -17.79002352	      5.37730224	      5.58641614	      0.15198148	      1.14211138	     -0.22510223	      0.00000000	      0.50000000	      0.00000000	      0.25000000	     56.71827956	     -9.62390851	      6.98590529	     78.99023256	      1.37863964	     -6.68764309	    -11.65194310	      0.00000000	      0.00000000	     65.08005122	      3.70663318	      1.80839407	     54.33316141	      0.94829256	      5.93351668	     -6.66127850	      0.00000000	      0.00000000	    -60.63765210	     -3.17397301	     -4.01355755	     89.43546215	    -17.18453377	     33.05875324	     45.43439027	     32.07714211	      0.00000000	      0.00000000	     89.72765637	     -3.35102546	     26.01964415	     50.66729266	     24.63055116	      0.00000000	      0.00000000
      7.52000000	    -17.58329666	      4.64069488	      5.15007845	      0.15322936	      1.14061582	     -0.22619705	      0.00000000	      0.50000000	      0.00000000	      0.25000000	     57.83383470	     -8.85955621	      6.90247028	     81.50557231	      1.42254060	     -6.30973503	    -11.31227581	      0.00000000	      0.00000000	     63.67196229	      3.02283074	      2.14253723	     52.26615134	      0.91221643	      4.74186427	     -6.45171550	      0.00000000	      0.00000000	    -60.65148759	     -2.81399643	     -3.18185394	     89.43255455	    -17.25721991	     33.21136840	     45.67398431	     32.15455388	      0.00000000	      0.00000000	     89.71027785	     -3.55396115	     26.12288498	     50.54420556	     24.62088044	      0.00000000	      0.00000000
      7.52500000	    -17.42517294	      3.91211915	      4.70009777	      0.15460444	      1.13922785	     -0.22732950	      0.00000000	      0.50000000	      0.00000000	      0.25000000	     59.00848998	     -8.13947280	      6.81092026	     83.92831114	      1.46482536	     -5.81309210	    -10.50211112	      0.00000000	      0.00000000	     62.23229842	      2.35515200	      2.51970685	     50.09938597	      0.87439924	      3.21182282	     -6.69736890	      0.00000000	      0.00000000	    -60.62601772	     -2.49304729	     -2.32530535	     89.41229454	    -17.56887564	     33.53068993	     46.12594433	     32.30459738	      0.00000000	      0.00000000	     89.70004208	     -3.71294498	     26.56161176	     50.24891596	     24.61089593	      0.00000000	      0.00000000
      7.53000000	    -17.14062077	      3.36037038	      4.15508409	      0.15621091	      1.13784771	     -0.22876523	      0.00000000	      0.50000000	      0.00000000	      0.25000000	     60.13746120	     -7.52665247	      6.86962473	     86.38082136	      1.50762974	     -5.30853565	     -9.64809390	      0.00000000	      0.00000000	     60.70715818	      1.65608785	      2.52838592	     48.19250476	      0.84111788	      1.92067237	     -6.90922360	      0.00000000	      0.00000000	    -60.68440347	     -2.28816369	     -1.39430402	     89.39159189	    -18.15050699	     34.29159241	     46.74982690	     32.56381500	      0.00000000	      0.00000000	     89.69354766	     -3.89475071	     27.41481769	     49.74389636	     24.61840600	      0.00000000	      0.00000000
      7.53500000	    -16.82653065	      2.43109203	      3.53562568	      0.15793360	      1.13630947	     -0.23003684	      0.00000000	      0.50000000	      0.00000000	      0.25000000	     61.17130846	     -6.54686545	      6.58434153	     88.67420445	      1.54765683	     -5.13670302	     -9.50814652	      0.00000000	      0.00000000	     59.45193566	      0.50008703	      2.54767863	     46.83806429	      0.81747844	      0.93301679	     -6.25198310	      0.00000000	      0.00000000	    -60.70431017	     -1.86412250	     -0.42124710	     89.40572706	    -18.01809825	     34.58906387	     46.89946428	     32.63365847	      0.00000000	      0.00000000	     89.67174988	     -4.22860290	     27.48973303	     49.54288321	     24.60208254	      0.00000000	      0.00000000
      7.54000000	    -16.65109873	      1.44032306	      2.84845279	      0.15943089	      1.13515773	     -0.23086903	      0.00000000	      0.50000000	      0.00000000	      0.25000000	     62.33531693	     -5.44071412	      6.23924701	     90.73694626	      1.58365847	     -5.08588229	     -9.22836332	      0.00000000	      0.00000000	     58.04647037	     -0.69292516	      2.80664605	     45.00358397	      0.78546072	     -0.03850736	     -5.66322083	      0.00000000	      0.00000000	    -60.61857758	     -1.52095869	      0.62936788	     89.39356619	    -17.89160384	     34.95454810	     47.02417325	     32.70574312	      0.00000000	      0.00000000	     89.65956984	     -4.62081558	     27.66447165	     49.21746656	     24.57350785	      0.00000000	      0.00000000
      7.54500000	    -16.51723754	      0.56583275	      2.17386867	      0.16084585	      1.13404649	     -0.23186919	      0.00000000	      0.50000000	      0.00000000	      0.25000000	     63.56728719	     -4.41723442	      5.99831514	     92.73564024	      1.61854226	     -5.02183874	     -9.04129186	      0.00000000	      0.00000000	     56.61778236	     -1.76019966	      3.03062980	     43.15502257	      0.75319723	     -1.05529825	     -5.20084321	      0.00000000	      0.00000000	    -60.48421461	     -1.19268071	      1.59713379	     89.39979604	    -17.72190906	     35.35414437	     47.10652607	     32.77753842	      0.00000000	      0.00000000	     89.65067882	     -4.99051909	     27.97085464	     48.79285348	     24.54823249	      0.00000000	      0.00000000
